# xmcd
# 
# Track frame offsets:
#     150
#     11420
#     22940
#     40035
#     70530
#     96930
#     136992
#     168337
#     183417
#     200365
#     212185
#     241810
#     284505
# 
# Disc length: 4309
# 
# Revision: 74
# Processed by: cddbd v1.5.2PL0 Copyright (c) Steve Scherf et al.
# Submitted via: fre:ac v1.1beta2
# 
DISCID=aa10d30d
DTITLE=Pink Floyd - Pulse CD2
DYEAR=1995
DGENRE=Progressive Rock
TTITLE0=Speak To Me
TTITLE1=Breathe
TTITLE2=On The Run
TTITLE3=Time
TTITLE4=The Great Gig In The Sky
TTITLE5=Money
TTITLE6=Us And Them
TTITLE7=Any Colour You Like
TTITLE8=Brain Damage
TTITLE9=Eclipse
TTITLE10=Wish You Were Here
TTITLE11=Comfortably Numb
TTITLE12=Run Like Hell
EXTD=\n
EXTT0=
EXTT1=
EXTT2=
EXTT3=
EXTT4=
EXTT5=
EXTT6=
EXTT7=
EXTT8=
EXTT9=
EXTT10=
EXTT11=
EXTT12=
PLAYORDER=
